<svg width="62" height="62" viewBox="0 0 62 62" fill="none" xmlns="http://www.w3.org/2000/svg">
<rect x="0.5" y="0.5" width="61" height="61" rx="30.5" stroke="white" stroke-opacity="0.5"/>
<path d="M28.8225 17.4135L36.3495 24.9495L36.4295 24.8695C36.5872 24.7152 36.7983 24.6277 37.0189 24.6253C37.2395 24.6228 37.4525 24.7057 37.6135 24.8565L37.6195 24.8625L38.4865 25.7295C38.7915 26.0345 38.8015 26.4995 38.5695 26.8235L38.5655 26.8305L38.4225 27.0225L44.5825 33.1825C45.1325 33.7325 45.1325 34.6125 44.5825 35.1625L35.1525 44.5925C34.6025 45.1425 33.7225 45.1425 33.1725 44.5925L28.7255 40.1455C28.6516 40.2386 28.5589 40.315 28.4534 40.3697C28.3479 40.4244 28.2321 40.4561 28.1134 40.4628C27.9948 40.4695 27.8761 40.451 27.7651 40.4086C27.6541 40.3661 27.5534 40.3007 27.4695 40.2165L24.8695 37.6165C24.7152 37.4588 24.6277 37.2477 24.6253 37.0271C24.6228 36.8065 24.7057 36.5935 24.8565 36.4325L24.8625 36.4255L24.9395 36.3495L17.4125 28.8225C16.8625 28.2725 16.8625 27.3925 17.4125 26.8425L26.8425 17.4125C27.3925 16.8625 28.2725 16.8625 28.8225 17.4125V17.4135ZM35.4045 25.8935L33.6485 24.1385C33.5933 24.0816 33.5273 24.0363 33.4543 24.0054C33.3812 23.9745 33.3028 23.9586 33.2235 23.9586C33.1442 23.9586 33.0658 23.9745 32.9928 24.0054C32.9197 24.0363 32.8537 24.0816 32.7985 24.1385L29.2185 27.7185C29.1618 27.7748 29.1168 27.8418 29.086 27.9156C29.0553 27.9894 29.0395 28.0686 29.0395 28.1485C29.0395 28.2284 29.0553 28.3076 29.086 28.3814C29.1168 28.4552 29.1618 28.5222 29.2185 28.5785L30.9675 30.3275L31.5775 29.7175L30.0125 28.1525L33.2225 24.9325L34.7915 26.5065L35.4045 25.8935ZM30.3285 30.9655L28.5745 29.2115C28.5193 29.1546 28.4533 29.1093 28.3803 29.0784C28.3072 29.0475 28.2288 29.0316 28.1495 29.0316C28.0702 29.0316 27.9918 29.0475 27.9187 29.0784C27.8457 29.1093 27.7797 29.1546 27.7245 29.2115L24.1445 32.7915L24.1395 32.7965L24.1345 32.8015C23.8945 33.0315 23.8945 33.4115 24.1345 33.6515L25.8865 35.4035L26.5025 34.7875L24.9325 33.2235L28.1525 30.0135L29.7165 31.5765L30.3285 30.9655ZM23.8225 23.1935L27.4025 26.7735C27.6425 27.0135 28.0225 27.0135 28.2525 26.7635L31.8325 23.1835C31.8894 23.1293 31.9347 23.0642 31.9656 22.992C31.9965 22.9198 32.0125 22.842 32.0125 22.7635H32.0225C32.0225 22.6135 31.9625 22.4535 31.8425 22.3335L28.2625 18.7535C28.2062 18.6967 28.1393 18.6515 28.0655 18.6207C27.9917 18.5899 27.9125 18.5741 27.8325 18.5741C27.7525 18.5741 27.6733 18.5899 27.5995 18.6207C27.5257 18.6515 27.4588 18.6967 27.4025 18.7535L23.8225 22.3435C23.5825 22.5735 23.5825 22.9535 23.8225 23.1935ZM18.7525 28.2635L22.3325 31.8435C22.5725 32.0835 22.9525 32.0835 23.1825 31.8435L26.7625 28.2635C26.8206 28.2082 26.8666 28.1414 26.8976 28.0674C26.9286 27.9934 26.9439 27.9137 26.9425 27.8335H26.9525C26.9525 27.6735 26.8925 27.5235 26.7725 27.4035L23.1925 23.8235C23.1373 23.7666 23.0713 23.7213 22.9983 23.6904C22.9252 23.6595 22.8468 23.6436 22.7675 23.6436C22.6882 23.6436 22.6098 23.6595 22.5367 23.6904C22.4637 23.7213 22.3977 23.7666 22.3425 23.8235L18.7525 27.4135C18.5125 27.6435 18.5125 28.0235 18.7525 28.2635ZM25.6855 37.0175L28.0475 39.3805L37.6835 26.3405L37.0285 25.6855L25.6855 37.0175Z" fill="#111111"/>
<path d="M28.8225 17.4135L36.3495 24.9495L36.4295 24.8695C36.5872 24.7152 36.7983 24.6277 37.0189 24.6253C37.2395 24.6228 37.4525 24.7057 37.6135 24.8565L37.6195 24.8625L38.4865 25.7295C38.7915 26.0345 38.8015 26.4995 38.5695 26.8235L38.5655 26.8305L38.4225 27.0225L44.5825 33.1825C45.1325 33.7325 45.1325 34.6125 44.5825 35.1625L35.1525 44.5925C34.6025 45.1425 33.7225 45.1425 33.1725 44.5925L28.7255 40.1455C28.6516 40.2386 28.5589 40.315 28.4534 40.3697C28.3479 40.4244 28.2321 40.4561 28.1134 40.4628C27.9948 40.4695 27.8761 40.451 27.7651 40.4086C27.6541 40.3661 27.5534 40.3007 27.4695 40.2165L24.8695 37.6165C24.7152 37.4588 24.6277 37.2477 24.6253 37.0271C24.6228 36.8065 24.7057 36.5935 24.8565 36.4325L24.8625 36.4255L24.9395 36.3495L17.4125 28.8225C16.8625 28.2725 16.8625 27.3925 17.4125 26.8425L26.8425 17.4125C27.3925 16.8625 28.2725 16.8625 28.8225 17.4125V17.4135ZM35.4045 25.8935L33.6485 24.1385C33.5933 24.0816 33.5273 24.0363 33.4543 24.0054C33.3812 23.9745 33.3028 23.9586 33.2235 23.9586C33.1442 23.9586 33.0658 23.9745 32.9928 24.0054C32.9197 24.0363 32.8537 24.0816 32.7985 24.1385L29.2185 27.7185C29.1618 27.7748 29.1168 27.8418 29.086 27.9156C29.0553 27.9894 29.0395 28.0686 29.0395 28.1485C29.0395 28.2284 29.0553 28.3076 29.086 28.3814C29.1168 28.4552 29.1618 28.5222 29.2185 28.5785L30.9675 30.3275L31.5775 29.7175L30.0125 28.1525L33.2225 24.9325L34.7915 26.5065L35.4045 25.8935ZM30.3285 30.9655L28.5745 29.2115C28.5193 29.1546 28.4533 29.1093 28.3803 29.0784C28.3072 29.0475 28.2288 29.0316 28.1495 29.0316C28.0702 29.0316 27.9918 29.0475 27.9187 29.0784C27.8457 29.1093 27.7797 29.1546 27.7245 29.2115L24.1445 32.7915L24.1395 32.7965L24.1345 32.8015C23.8945 33.0315 23.8945 33.4115 24.1345 33.6515L25.8865 35.4035L26.5025 34.7875L24.9325 33.2235L28.1525 30.0135L29.7165 31.5765L30.3285 30.9655ZM23.8225 23.1935L27.4025 26.7735C27.6425 27.0135 28.0225 27.0135 28.2525 26.7635L31.8325 23.1835C31.8894 23.1293 31.9347 23.0642 31.9656 22.992C31.9965 22.9198 32.0125 22.842 32.0125 22.7635H32.0225C32.0225 22.6135 31.9625 22.4535 31.8425 22.3335L28.2625 18.7535C28.2062 18.6967 28.1393 18.6515 28.0655 18.6207C27.9917 18.5899 27.9125 18.5741 27.8325 18.5741C27.7525 18.5741 27.6733 18.5899 27.5995 18.6207C27.5257 18.6515 27.4588 18.6967 27.4025 18.7535L23.8225 22.3435C23.5825 22.5735 23.5825 22.9535 23.8225 23.1935ZM18.7525 28.2635L22.3325 31.8435C22.5725 32.0835 22.9525 32.0835 23.1825 31.8435L26.7625 28.2635C26.8206 28.2082 26.8666 28.1414 26.8976 28.0674C26.9286 27.9934 26.9439 27.9137 26.9425 27.8335H26.9525C26.9525 27.6735 26.8925 27.5235 26.7725 27.4035L23.1925 23.8235C23.1373 23.7666 23.0713 23.7213 22.9983 23.6904C22.9252 23.6595 22.8468 23.6436 22.7675 23.6436C22.6882 23.6436 22.6098 23.6595 22.5367 23.6904C22.4637 23.7213 22.3977 23.7666 22.3425 23.8235L18.7525 27.4135C18.5125 27.6435 18.5125 28.0235 18.7525 28.2635ZM25.6855 37.0175L28.0475 39.3805L37.6835 26.3405L37.0285 25.6855L25.6855 37.0175Z" fill="#FD9222"/>
</svg>
